<svg xmlns="http://www.w3.org/2000/svg" width="338" height="136" viewBox="0 0 338 136" version="1.1">
	<path d="M 317 6.383 C 317 7.756, 314.109 8.960, 310.750 8.986 C 309.788 8.994, 309 8.277, 309 7.393 C 309 6.338, 308.456 5.995, 307.418 6.393 C 306.548 6.727, 305.648 7, 305.418 7 C 305.188 7, 305 7.815, 305 8.812 C 305 11.420, 299.271 15.470, 297.574 14.061 C 296.063 12.808, 293.397 15.215, 294.435 16.895 C 294.769 17.435, 294.454 18.242, 293.735 18.689 C 293.016 19.135, 290.736 22.083, 288.667 25.240 C 285.531 30.027, 285.011 31.542, 285.540 34.359 C 285.990 36.758, 285.568 38.990, 284.087 42.057 C 281.497 47.417, 281.499 48.036, 284.118 52.476 C 285.516 54.845, 286.049 57.007, 285.684 58.830 C 285.021 62.145, 285.756 63.498, 288.724 64.424 C 289.947 64.806, 291.525 66.329, 292.231 67.809 C 293.125 69.683, 294.424 70.599, 296.507 70.827 C 298.153 71.007, 299.928 71.569, 300.450 72.077 C 301.941 73.526, 303.947 73.174, 307.137 70.902 C 309.084 69.516, 310.893 69.007, 312.470 69.403 C 313.876 69.756, 315.407 69.450, 316.198 68.659 C 316.937 67.920, 318.544 66.779, 319.771 66.123 C 320.997 65.467, 322 64.082, 322 63.046 C 322 60.166, 325.296 55.013, 327.143 55.006 C 329.367 54.998, 330.283 52.258, 328.413 51.211 C 327.229 50.548, 327.126 49.799, 327.930 47.685 C 328.491 46.208, 329.445 45, 330.049 45 C 330.653 45, 330.995 44.212, 330.810 43.250 C 330.624 42.288, 329.936 41.500, 329.279 41.500 C 328.623 41.500, 327.492 40.688, 326.767 39.696 C 325.190 37.539, 322.356 38.302, 321.460 41.125 C 321.122 42.191, 319.755 44.154, 318.422 45.487 C 317.090 46.819, 316 48.325, 316 48.833 C 316 49.341, 314.719 50.288, 313.154 50.936 C 309.907 52.281, 305.402 51.503, 302.612 49.116 C 296.212 43.639, 296.681 28.876, 303.394 24.478 C 306.988 22.123, 312.649 22.322, 315.394 24.900 C 316.623 26.055, 318.275 26.987, 319.064 26.971 C 321.408 26.923, 327.143 21.105, 326.807 19.117 C 326.638 18.122, 327.101 16.583, 327.836 15.697 C 329.620 13.548, 328.328 11.701, 325.531 12.403 C 322.598 13.139, 319.865 10.231, 320.655 7.213 C 321.117 5.444, 320.809 5, 319.117 5 C 317.952 5, 317 5.623, 317 6.383 M 257.417 15.399 C 249.866 17.435, 248.180 20.360, 230.468 62.163 C 227.750 68.577, 225.237 73.647, 224.884 73.428 C 224.531 73.210, 223.689 67.894, 223.012 61.615 C 222.044 52.621, 222.040 47.194, 222.997 36.038 C 223.664 28.250, 224.042 21.709, 223.836 21.503 C 222.796 20.462, 214.762 22.457, 214.212 23.893 C 212.911 27.292, 209.377 31.626, 208.220 31.240 C 207.554 31.018, 205.620 32.227, 203.921 33.925 C 202.222 35.624, 200.420 36.759, 199.916 36.448 C 199.412 36.137, 199 33.509, 199 30.608 C 199 27.707, 198.765 25.098, 198.478 24.811 C 197.472 23.806, 190.129 26.393, 189.604 27.939 C 189.312 28.797, 188.183 30.625, 187.094 32 C 185.316 34.247, 184.996 37.146, 183.938 60.592 C 182.562 91.095, 182.543 91, 189.855 91 C 193.712 91, 195.061 90.515, 196.813 88.500 C 198.009 87.125, 199.440 86, 199.993 86 C 200.611 86, 201 81.550, 201 74.500 C 201 63.783, 201.132 63, 202.941 63 C 204.009 63, 205.107 63.364, 205.382 63.809 C 205.657 64.254, 206.198 69.202, 206.584 74.805 C 207.036 81.375, 207.763 85.389, 208.632 86.109 C 210.754 87.871, 216.699 86.227, 220.049 82.952 C 221.710 81.328, 223.458 80, 223.932 80 C 224.407 80, 226.754 81.120, 229.148 82.488 C 231.542 83.856, 234.412 84.981, 235.527 84.988 C 238.395 85.005, 242.474 79.951, 244.005 74.483 C 245.468 69.255, 246.571 68.572, 255.315 67.480 C 262.112 66.631, 265.210 68.173, 267.444 73.520 C 268.410 75.832, 269.562 77, 270.878 77 C 272.887 77, 276 74.567, 276 72.996 C 276 72.522, 276.944 71.835, 278.098 71.469 C 279.608 70.990, 280.063 70.200, 279.723 68.652 C 278.761 64.273, 262.837 15.479, 262.181 14.899 C 261.806 14.569, 259.663 14.794, 257.417 15.399 M 154.750 31.162 C 153.238 31.715, 151.999 32.467, 151.998 32.833 C 151.996 33.200, 150.692 35.025, 149.099 36.889 C 145.797 40.752, 125 88.770, 125 92.530 C 125 97.151, 136.848 102.445, 138.362 98.500 C 138.678 97.675, 139.544 97, 140.286 97 C 141.033 97, 142.386 94.656, 143.318 91.750 C 145.698 84.326, 145.977 84.062, 152.574 82.983 C 161.858 81.464, 164.820 82.414, 167.055 87.628 C 168.086 90.033, 169.583 92, 170.383 92 C 172.929 92, 175 90.831, 175 89.393 C 175 88.627, 175.338 87.986, 175.750 87.968 C 176.162 87.951, 177.334 87.305, 178.354 86.532 C 180.126 85.190, 179.820 83.915, 171.421 57.564 C 162.890 30.799, 162.561 30.002, 160.068 30.079 C 158.655 30.122, 156.262 30.610, 154.750 31.162 M 120.500 37.157 C 117.750 37.575, 112.575 38.876, 109 40.048 C 100.715 42.763, 90.590 43.734, 88.516 42.013 C 87.682 41.321, 87 39.894, 87 38.842 C 87 37.240, 86.676 37.103, 85 38 C 83.830 38.626, 83 40.094, 83 41.535 C 83 42.975, 82.421 44, 81.607 44 C 78.055 44, 79.143 50.586, 83.159 53.399 C 84.416 54.280, 87.354 55, 89.687 55 C 94.982 55, 96.130 56.801, 95.520 64.150 C 92.733 97.733, 92.667 100.284, 94.560 101.667 C 96.723 103.249, 104.327 103.430, 107.066 101.965 C 108.130 101.395, 109 100.270, 109 99.465 C 109 98.634, 109.928 98, 111.143 98 C 113.219 98, 113.267 97.724, 112.658 89.250 C 112.312 84.438, 111.731 73.913, 111.368 65.862 L 110.707 51.223 113.854 50.612 C 115.584 50.275, 118.365 49.736, 120.034 49.413 C 121.703 49.090, 123.779 47.740, 124.649 46.413 C 125.519 45.086, 126.853 44, 127.615 44 C 128.522 44, 129 42.833, 129 40.617 C 129 36.594, 127.696 36.063, 120.500 37.157 M 253.408 42.375 C 252.437 45.455, 251.890 48.223, 252.192 48.525 C 252.494 48.828, 253.971 48.515, 255.475 47.830 C 257.936 46.708, 258.155 46.195, 257.683 42.671 C 256.820 36.241, 255.373 36.140, 253.408 42.375 M 43.083 50.588 C 35.159 52.719, 28.183 57.096, 21.371 64.212 C 10.277 75.801, 6.588 85.173, 7.156 100.329 C 7.581 111.673, 10.659 118.774, 17.253 123.625 C 23.032 127.877, 27.855 129.243, 37.061 129.238 C 52.124 129.229, 63.613 124.591, 72.166 115.066 C 76.956 109.731, 81 103.289, 81 100.995 C 81 99.030, 73.638 101.113, 70.500 103.965 C 64.240 109.656, 60.268 111.919, 53.020 113.928 C 45.250 116.080, 40.898 116.406, 37.520 115.086 C 33.937 113.686, 41.576 111.126, 49 111.237 C 54.659 111.322, 56.166 110.922, 60.644 108.147 C 66.647 104.426, 72.787 96.880, 76.659 88.461 C 79.812 81.608, 80.431 71.313, 78.095 64.584 C 73.697 51.916, 59.400 46.201, 43.083 50.588 M 153.474 57.441 C 152.562 60.580, 152.019 63.353, 152.269 63.602 C 152.518 63.852, 153.968 63.583, 155.490 63.004 C 158.039 62.035, 158.214 61.629, 157.707 57.855 C 156.811 51.171, 155.339 51.027, 153.474 57.441 M 39.500 64.392 C 27.011 68.322, 19.894 77.299, 20.047 88.932 L 20.094 92.500 21.890 87.908 C 28.125 71.973, 43.605 60.832, 51.666 66.479 C 53.585 67.822, 53.824 67.783, 54.278 66.043 C 54.574 64.912, 54.178 63.898, 53.308 63.565 C 50.867 62.628, 43.752 63.054, 39.500 64.392 M 63.652 73.649 C 62.438 77.766, 60 91.089, 60 93.613 C 60 96.188, 60.085 96.233, 61.877 94.612 C 64.615 92.133, 67.345 82.611, 66.699 77.793 C 66.064 73.060, 64.467 70.888, 63.652 73.649 M 37.334 83.744 C 35.444 88.267, 35.286 96.435, 37.047 98.557 C 40.580 102.814, 45.986 96.318, 46.161 87.605 C 46.267 82.324, 44.790 80, 41.327 80 C 39.466 80, 38.532 80.876, 37.334 83.744 " stroke="none" fill="black" fill-rule="evenodd"/>
</svg>